<?xml version="1.0" encoding="UTF-8"?>
<svg width="800px" height="1575px" viewBox="0 0 800 1575" version="1.1" xmlns="http://www.w3.org/2000/svg" xmlns:xlink="http://www.w3.org/1999/xlink">
    <title>Group</title>
    <defs>
        <path d="M346,1037 C313.532,1037 284.546,1035.72 258.62,1033.55 L257.926,1001.95 C274.55,993.82 286,976.75 286,957 C286,936.47 273.626,918.83 255.93,911.13 L255.561,894.38 C272.113,886.23 283.5,869.19 283.5,849.5 C283.5,829.02 271.19,811.42 253.568,803.69 L251.966,730.79 C274.306,725.79 291,705.85 291,682 C291,657.39 273.223,636.94 249.811,632.77 L236.92,46.259 C271.326,48.334 307.967,49.454 345.97,49.454 C345.972,49.454 345.972,49.454 345.972,49.454 C345.983,49.454 345.989,49.454 346,49.454 C346.107,49.454 346.219,49.454 346.326,49.454 L346.334,49.454 C509.221,49.424 646.724,28.868 691.274,0.743 L621,990.69 C580.932,1006.4 505.27,1037 346,1037 M303.5,719.5 C275.886,719.5 253.5,741.88 253.5,769.5 C253.5,797.11 275.886,819.5 303.5,819.5 C331.114,819.5 353.5,797.11 353.5,769.5 C353.5,741.88 331.114,719.5 303.5,719.5 M170.692,1021.1 C122.971,1011.15 92.07,998.68 71,990.34 L0.726,0.735 C22.826,14.681 67.807,26.769 127.363,35.414 L156.02,687.33 C139.696,695.56 128.5,712.47 128.5,732 C128.5,753.09 141.555,771.13 160.027,778.48 L160.47,788.55 C151.803,781.34 140.659,777 128.5,777 C100.886,777 78.5,799.38 78.5,827 C78.5,854.61 100.886,877 128.5,877 C142.238,877 154.683,871.46 163.72,862.49 L164.632,883.24 C161.053,882.43 157.326,882 153.5,882 C125.886,882 103.5,904.38 103.5,932 C103.5,959.61 125.886,982 153.5,982 C158.862,982 164.026,981.16 168.868,979.59 L170.692,1021.1" id="path-1"></path>
        <path d="M98.62,303.55 C64.234,300.67 35.234,296.21 10.692,291.1 L8.868,249.59 C15.836,247.34 22.134,243.61 27.391,238.76 C32.681,260.7 52.438,277 76,277 C83.864,277 91.306,275.18 97.926,271.95 L98.62,303.55 M42.109,190.24 C37.678,171.86 23.098,157.44 4.632,153.24 L3.72,132.49 C12.848,123.43 18.5,110.88 18.5,97 C18.5,81.54 11.487,67.73 0.47,58.55 L0.027,48.48 C5.741,50.75 11.976,52 18.5,52 C46.114,52 68.5,29.61 68.5,2 C68.5,1.47 68.492,0.94 68.475,0.42 C72.478,1.45 76.675,2 81,2 C84.767,2 88.437,1.58 91.966,0.79 L93.568,73.69 C87.425,70.99 80.638,69.5 73.5,69.5 C45.886,69.5 23.5,91.88 23.5,119.5 C23.5,147.11 45.886,169.5 73.5,169.5 C81.418,169.5 88.908,167.66 95.561,164.38 L95.93,181.13 C89.823,178.47 83.084,177 76,177 C62.923,177 51.019,182.02 42.109,190.24" id="path-3"></path>
        <path d="M29.02,652.33 L0.363,0.414 C32.968,5.147 69.929,8.847 109.92,11.259 L122.811,597.77 C119.951,597.26 117.007,597 114,597 C86.386,597 64,619.38 64,647 C64,647.53 64.008,648.06 64.025,648.58 C60.022,647.55 55.825,647 51.5,647 C43.415,647 35.778,648.92 29.02,652.33" id="path-5"></path>
    </defs>
    <g id="Page-1" stroke="none" stroke-width="1" fill="none" fill-rule="evenodd">
        <g id="BUBBLE_TEA-21" transform="translate(-200.000000, -225.000000)">
            <g id="Group" transform="translate(200.000000, 224.999000)">
                <path d="M12.5,350.001 L25,475.047 L25.001,475.053 L25.205,477.41 C31.469,517.644 196.988,550.001 399.969,550.001 C603.014,550.001 768.243,517.702 774.775,477.517 L774.999,475.053 L775,475.047 L787.5,350.001 L12.5,350.001" id="Fill-3" fill="#EAEDF1"></path>
                <path d="M37.5,450 L112.5,1521.251 C112.5,1521.251 176.286,1575.001 400,1575.001 C623.714,1575.001 687.5,1521.791 687.5,1521.791 L762.5,450 L37.5,450" id="Fill-4" fill="#EAEDF1"></path>
                <g id="Group-7" transform="translate(54.000000, 488.001000)">
                    <mask id="mask-2" fill="white">
                        <use xlink:href="#path-1"></use>
                    </mask>
                    <g id="Clip-6"></g>
                    <path d="M346,1037 C313.532,1037 284.546,1035.72 258.62,1033.55 L257.926,1001.95 C274.55,993.82 286,976.75 286,957 C286,936.47 273.626,918.83 255.93,911.13 L255.561,894.38 C272.113,886.23 283.5,869.19 283.5,849.5 C283.5,829.02 271.19,811.42 253.568,803.69 L251.966,730.79 C274.306,725.79 291,705.85 291,682 C291,657.39 273.223,636.94 249.811,632.77 L236.92,46.259 C271.326,48.334 307.967,49.454 345.97,49.454 C345.972,49.454 345.972,49.454 345.972,49.454 C345.983,49.454 345.989,49.454 346,49.454 C346.107,49.454 346.219,49.454 346.326,49.454 L346.334,49.454 C509.221,49.424 646.724,28.868 691.274,0.743 L621,990.69 C580.932,1006.4 505.27,1037 346,1037 M303.5,719.5 C275.886,719.5 253.5,741.88 253.5,769.5 C253.5,797.11 275.886,819.5 303.5,819.5 C331.114,819.5 353.5,797.11 353.5,769.5 C353.5,741.88 331.114,719.5 303.5,719.5 M170.692,1021.1 C122.971,1011.15 92.07,998.68 71,990.34 L0.726,0.735 C22.826,14.681 67.807,26.769 127.363,35.414 L156.02,687.33 C139.696,695.56 128.5,712.47 128.5,732 C128.5,753.09 141.555,771.13 160.027,778.48 L160.47,788.55 C151.803,781.34 140.659,777 128.5,777 C100.886,777 78.5,799.38 78.5,827 C78.5,854.61 100.886,877 128.5,877 C142.238,877 154.683,871.46 163.72,862.49 L164.632,883.24 C161.053,882.43 157.326,882 153.5,882 C125.886,882 103.5,904.38 103.5,932 C103.5,959.61 125.886,982 153.5,982 C158.862,982 164.026,981.16 168.868,979.59 L170.692,1021.1" id="Fill-5" mask="url(#mask-2)"></path>
                </g>
                <path d="M46.406,354.955 L57.813,469.059 L57.813,469.064 L58,471.216 C63.715,507.93 214.752,537.455 399.972,537.455 C585.25,537.455 736.022,507.982 741.983,471.313 L742.187,469.066 L742.187,469.059 L753.594,354.955 L46.406,354.955" id="Fill-8" fill="#E3BBA0"></path>
                <path d="M27.5,354.955 L39.516,469.059 L39.517,469.064 L39.714,471.216 C45.734,507.93 204.847,537.455 399.97,537.455 C595.155,537.455 753.988,507.982 760.268,471.313 L760.483,469.066 L760.484,469.059 L772.5,354.955 L27.5,354.955" id="Fill-9" fill="#9B684E"></path>
                <path d="M33.57,412.597 C95.436,434.594 236.268,450 399.967,450 C563.839,450 704.593,434.599 766.429,412.606 L772.5,354.955 L27.5,354.955 L33.57,412.597" id="Fill-10" fill="#815741"></path>
                <path d="M110.375,505.446 C170.975,524.66 278.057,537.455 399.972,537.455 C522.013,537.455 629.06,524.665 689.634,505.456 L691.514,489.893 C637.669,512.157 527.376,522.455 399.973,522.455 C272.707,522.455 162.366,512.153 108.494,489.885 L110.375,505.446" id="Fill-11" fill="#A97E67"></path>
                <path d="M495,1212.501 C495,1240.111 517.386,1262.501 545,1262.501 C572.614,1262.501 595,1240.111 595,1212.501 C595,1184.881 572.614,1162.501 545,1162.501 C517.386,1162.501 495,1184.881 495,1212.501" id="Fill-12" fill="#694A38"></path>
                <path d="M482.5,1337.501 C482.5,1365.111 504.886,1387.501 532.5,1387.501 C560.114,1387.501 582.5,1365.111 582.5,1337.501 C582.5,1309.881 560.114,1287.501 532.5,1287.501 C504.886,1287.501 482.5,1309.881 482.5,1337.501" id="Fill-13" fill="#7B5339"></path>
                <path d="M240,1445.001 C240,1472.611 262.386,1495.001 290,1495.001 C317.614,1495.001 340,1472.611 340,1445.001 C340,1417.381 317.614,1395.001 290,1395.001 C262.386,1395.001 240,1417.381 240,1445.001" id="Fill-14" fill="#7B5339"></path>
                <path d="M107.5,1145.001 C107.5,1172.611 129.886,1195.001 157.5,1195.001 C185.114,1195.001 207.5,1172.611 207.5,1145.001 C207.5,1117.381 185.114,1095.001 157.5,1095.001 C129.886,1095.001 107.5,1117.381 107.5,1145.001" id="Fill-15" fill="#694A38"></path>
                <path d="M351.25,1445.001 C351.25,1472.611 373.636,1495.001 401.25,1495.001 C428.864,1495.001 451.25,1472.611 451.25,1445.001 C451.25,1417.381 428.864,1395.001 401.25,1395.001 C373.636,1395.001 351.25,1417.381 351.25,1445.001" id="Fill-16" fill="#7B5339"></path>
                <path d="M237.5,1337.501 C237.5,1365.111 259.886,1387.501 287.5,1387.501 C315.114,1387.501 337.5,1365.111 337.5,1337.501 C337.5,1309.881 315.114,1287.501 287.5,1287.501 C259.886,1287.501 237.5,1309.881 237.5,1337.501" id="Fill-17" fill="#694A38"></path>
                <path d="M407.5,1145.001 C407.5,1172.611 429.886,1195.001 457.5,1195.001 C485.114,1195.001 507.5,1172.611 507.5,1145.001 C507.5,1117.381 485.114,1095.001 457.5,1095.001 C429.886,1095.001 407.5,1117.381 407.5,1145.001" id="Fill-18" fill="#7B5339"></path>
                <path d="M382.5,1230.001 C382.5,1257.611 404.886,1280.001 432.5,1280.001 C460.114,1280.001 482.5,1257.611 482.5,1230.001 C482.5,1202.381 460.114,1180.001 432.5,1180.001 C404.886,1180.001 382.5,1202.381 382.5,1230.001" id="Fill-19" fill="#694A38"></path>
                <path d="M307.5,1257.501 C307.5,1285.111 329.886,1307.501 357.5,1307.501 C385.114,1307.501 407.5,1285.111 407.5,1257.501 C407.5,1229.881 385.114,1207.501 357.5,1207.501 C329.886,1207.501 307.5,1229.881 307.5,1257.501" id="Fill-20" fill="#7B5339"></path>
                <path d="M375,1340.001 C375,1367.611 397.386,1390.001 425,1390.001 C452.614,1390.001 475,1367.611 475,1340.001 C475,1312.381 452.614,1290.001 425,1290.001 C397.386,1290.001 375,1312.381 375,1340.001" id="Fill-21" fill="#694A38"></path>
                <path d="M460,1445.001 C460,1472.611 482.386,1495.001 510,1495.001 C537.614,1495.001 560,1472.611 560,1445.001 C560,1417.381 537.614,1395.001 510,1395.001 C482.386,1395.001 460,1417.381 460,1445.001" id="Fill-22" fill="#7B5339"></path>
                <path d="M577.5,1172.501 C577.5,1200.111 599.886,1222.501 627.5,1222.501 C655.114,1222.501 677.5,1200.111 677.5,1172.501 C677.5,1144.881 655.114,1122.501 627.5,1122.501 C599.886,1122.501 577.5,1144.881 577.5,1172.501" id="Fill-23" fill="#7B5339"></path>
                <path d="M577.5,1282.501 C577.5,1310.111 599.886,1332.501 627.5,1332.501 C655.114,1332.501 677.5,1310.111 677.5,1282.501 C677.5,1254.881 655.114,1232.501 627.5,1232.501 C599.886,1232.501 577.5,1254.881 577.5,1282.501" id="Fill-24" fill="#694A38"></path>
                <path d="M570,1415.001 C570,1442.611 592.386,1465.001 620,1465.001 C647.614,1465.001 670,1442.611 670,1415.001 C670,1387.381 647.614,1365.001 620,1365.001 C592.386,1365.001 570,1387.381 570,1415.001" id="Fill-25" fill="#694A38"></path>
                <path d="M182.5,1220.001 C182.5,1247.611 204.886,1270.001 232.5,1270.001 C260.114,1270.001 282.5,1247.611 282.5,1220.001 C282.5,1192.381 260.114,1170.001 232.5,1170.001 C204.886,1170.001 182.5,1192.381 182.5,1220.001" id="Fill-26" fill="#7B5339"></path>
                <path d="M157.5,1420.001 C157.5,1447.611 179.886,1470.001 207.5,1470.001 C235.114,1470.001 257.5,1447.611 257.5,1420.001 C257.5,1392.381 235.114,1370.001 207.5,1370.001 C179.886,1370.001 157.5,1392.381 157.5,1420.001" id="Fill-27" fill="#694A38"></path>
                <path d="M245,1170.001 C245,1197.611 267.386,1220.001 295,1220.001 C322.614,1220.001 345,1197.611 345,1170.001 C345,1142.381 322.614,1120.001 295,1120.001 C267.386,1120.001 245,1142.381 245,1170.001" id="Fill-28" fill="#694A38"></path>
                <path d="M132.5,1315.001 C132.5,1342.611 154.886,1365.001 182.5,1365.001 C210.114,1365.001 232.5,1342.611 232.5,1315.001 C232.5,1287.381 210.114,1265.001 182.5,1265.001 C154.886,1265.001 132.5,1287.381 132.5,1315.001" id="Fill-29" fill="#694A38"></path>
                <path d="M313.73,1572.021 C279.849,1569.551 251.148,1565.721 226.984,1561.241 L224.692,1509.101 C249.234,1514.211 278.234,1518.671 312.62,1521.551 L313.73,1572.021" id="Fill-30" fill="#F0F2F5"></path>
                <g id="Group-33" transform="translate(214.000000, 1218.001000)">
                    <mask id="mask-4" fill="white">
                        <use xlink:href="#path-3"></use>
                    </mask>
                    <g id="Clip-32"></g>
                    <path d="M98.62,303.55 C64.234,300.67 35.234,296.21 10.692,291.1 L8.868,249.59 C15.836,247.34 22.134,243.61 27.391,238.76 C32.681,260.7 52.438,277 76,277 C83.864,277 91.306,275.18 97.926,271.95 L98.62,303.55 M42.109,190.24 C37.678,171.86 23.098,157.44 4.632,153.24 L3.72,132.49 C12.848,123.43 18.5,110.88 18.5,97 C18.5,81.54 11.487,67.73 0.47,58.55 L0.027,48.48 C5.741,50.75 11.976,52 18.5,52 C46.114,52 68.5,29.61 68.5,2 C68.5,1.47 68.492,0.94 68.475,0.42 C72.478,1.45 76.675,2 81,2 C84.767,2 88.437,1.58 91.966,0.79 L93.568,73.69 C87.425,70.99 80.638,69.5 73.5,69.5 C45.886,69.5 23.5,91.88 23.5,119.5 C23.5,147.11 45.886,169.5 73.5,169.5 C81.418,169.5 88.908,167.66 95.561,164.38 L95.93,181.13 C89.823,178.47 83.084,177 76,177 C62.923,177 51.019,182.02 42.109,190.24" id="Fill-31" mask="url(#mask-4)"></path>
                </g>
                <polyline id="Fill-34" fill="#F0F2F5" points="286.979 354.955 173.958 354.955 173.74 350.001 286.87 350.001 286.979 354.955"></polyline>
                <g id="Group-37" transform="translate(181.000000, 523.001000)">
                    <mask id="mask-6" fill="white">
                        <use xlink:href="#path-5"></use>
                    </mask>
                    <g id="Clip-36"></g>
                    <path d="M29.02,652.33 L0.363,0.414 C32.968,5.147 69.929,8.847 109.92,11.259 L122.811,597.77 C119.951,597.26 117.007,597 114,597 C86.386,597 64,619.38 64,647 C64,647.53 64.008,648.06 64.025,648.58 C60.022,647.55 55.825,647 51.5,647 C43.415,647 35.778,648.92 29.02,652.33" id="Fill-35" mask="url(#mask-6)"></path>
                </g>
                <path d="M290.92,534.26 C250.929,531.848 213.968,528.148 181.363,523.415 L181.285,521.626 C213.393,526.974 250.469,531.172 290.912,533.896 L290.92,534.26 M290.598,519.602 C249.576,517.303 212.317,513.59 180.703,508.388 L177.673,439.452 C211.5,442.995 248.964,445.753 289.014,447.559 L290.598,519.602" id="Fill-38" fill="#B99683"></path>
                <path d="M289.014,447.559 C248.964,445.753 211.5,442.995 177.673,439.452 L173.958,354.955 L286.979,354.955 L289.014,447.559" id="Fill-39" fill="#A78A7A"></path>
                <path d="M290.912,533.896 C250.469,531.172 213.393,526.974 181.285,521.626 L180.703,508.388 C212.317,513.59 249.576,517.303 290.598,519.602 L290.912,533.896" id="Fill-40" fill="#C3A595"></path>
                <path d="M290,1495.001 C266.438,1495.001 246.681,1478.701 241.391,1456.761 C251.295,1447.621 257.5,1434.541 257.5,1420.001 C257.5,1415.951 257.018,1412.011 256.109,1408.241 C265.019,1400.021 276.923,1395.001 290,1395.001 C297.084,1395.001 303.823,1396.471 309.93,1399.131 L311.926,1489.951 C305.306,1493.181 297.864,1495.001 290,1495.001" id="Fill-41" fill="#A38775"></path>
                <path d="M287.5,1387.501 C259.886,1387.501 237.5,1365.111 237.5,1337.501 C237.5,1309.881 259.886,1287.501 287.5,1287.501 C294.638,1287.501 301.425,1288.991 307.568,1291.691 L309.561,1382.381 C302.908,1385.661 295.418,1387.501 287.5,1387.501" id="Fill-42" fill="#968174"></path>
                <path d="M232.5,1270.001 C225.976,1270.001 219.741,1268.751 214.027,1266.481 L210.02,1175.331 C216.778,1171.921 224.415,1170.001 232.5,1170.001 C236.825,1170.001 241.022,1170.551 245.025,1171.581 C245.727,1194.171 261.412,1212.981 282.475,1218.421 C282.492,1218.941 282.5,1219.471 282.5,1220.001 C282.5,1247.611 260.114,1270.001 232.5,1270.001" id="Fill-43" fill="#A38775"></path>
                <path d="M222.868,1467.591 L218.632,1371.241 C237.098,1375.441 251.678,1389.861 256.109,1408.241 C257.018,1412.011 257.5,1415.951 257.5,1420.001 C257.5,1434.541 251.295,1447.621 241.391,1456.761 C236.134,1461.611 229.836,1465.341 222.868,1467.591" id="Fill-44" fill="#968174"></path>
                <path d="M295,1220.001 C290.675,1220.001 286.478,1219.451 282.475,1218.421 C261.412,1212.981 245.727,1194.171 245.025,1171.581 C245.008,1171.061 245,1170.531 245,1170.001 C245,1142.381 267.386,1120.001 295,1120.001 C298.007,1120.001 300.951,1120.261 303.811,1120.771 L305.966,1218.791 C302.437,1219.581 298.767,1220.001 295,1220.001" id="Fill-45" fill="#968174"></path>
                <path d="M217.72,1350.491 L214.47,1276.551 C225.487,1285.731 232.5,1299.541 232.5,1315.001 C232.5,1328.881 226.848,1341.431 217.72,1350.491" id="Fill-46" fill="#968174"></path>
                <path d="M800,337.583 L800,337.577 C800,302.854 620.969,275 399.967,275 C179.228,275 0,302.854 0,337.577 L0,337.582 L0.219,339.545 L0,362.577 L0,362.582 L0.219,364.545 C6.9,398.054 183.454,425 399.967,425 C616.548,425 792.793,398.102 799.76,364.635 L800,362.583 L800,362.577 L799.76,339.635 L800,337.583" id="Fill-47" fill="#D6DDE5"></path>
                <path d="M399.967,275 C179.228,275 0,302.854 0,337.577 L0,337.582 L0.219,339.546 C6.9,373.054 183.454,400 399.967,400 C616.548,400 792.793,373.102 799.76,339.634 L800,337.583 L800,337.577 C800,302.854 620.97,275 399.967,275" id="Fill-48" fill="#383838"></path>
                <path d="M343.75,12.5 L343.75,334.217 C343.75,334.217 354.306,337.5 400,337.5 C445.694,337.5 456.25,334.217 456.25,334.217 L456.25,12.5 L343.75,12.5" id="Fill-49" fill="#7B5339"></path>
                <path d="M378.906,12.5 L375,12.5 L375,337.104 C381.852,337.346 390.098,337.5 400,337.5 L400,12.5 L378.906,12.5" id="Fill-50" fill="#855C41"></path>
                <path d="M362.5,336.485 C368.755,336.9 376.926,337.251 387.5,337.41 L387.5,12.5 L362.5,12.5 L362.5,336.485" id="Fill-51" fill="#96735C"></path>
                <path d="M456.25,12.5 C456.25,19.403 431.066,25 400,25 C368.934,25 343.75,19.403 343.75,12.5 C343.75,5.597 368.934,0 400,0 C431.066,0 456.25,5.597 456.25,12.5" id="Fill-52" fill="#694A38"></path>
            </g>
        </g>
    </g>
</svg>